<?xml version="1.0" encoding="UTF-8" standalone="no"?>
<!DOCTYPE svg PUBLIC "-//W3C//DTD SVG 1.1//EN"
 "http://www.w3.org/Graphics/SVG/1.1/DTD/svg11.dtd">
<!-- Generated by graphviz version 2.50.0 (0)
 -->
<!-- Title: dekking Pages: 1 -->
<svg width="557pt" height="628pt"
 viewBox="0.00 0.00 557.00 628.00" xmlns="http://www.w3.org/2000/svg" xmlns:xlink="http://www.w3.org/1999/xlink">
<g id="graph0" class="graph" transform="scale(1 1) rotate(0) translate(4 624)">
<title>dekking</title>
<polygon fill="white" stroke="transparent" points="-4,4 -4,-624 553,-624 553,4 -4,4"/>
<g id="clust1" class="cluster">
<title>cluster_sources</title>
<polygon fill="none" stroke="black" points="251,-537 251,-612 409,-612 409,-537 251,-537"/>
<text text-anchor="middle" x="330" y="-596.8" font-family="Times,serif" font-size="14.00">Original sources</text>
</g>
<g id="clust2" class="cluster">
<title>cluster_coverables</title>
<polygon fill="none" stroke="black" points="8,-171 8,-246 376,-246 376,-171 8,-171"/>
<text text-anchor="middle" x="192" y="-230.8" font-family="Times,serif" font-size="14.00">Coverables</text>
</g>
<g id="clust3" class="cluster">
<title>cluster_modified</title>
<polygon fill="none" stroke="black" points="323,-390 323,-465 491,-465 491,-390 323,-390"/>
<text text-anchor="middle" x="407" y="-449.8" font-family="Times,serif" font-size="14.00">Modified sources</text>
</g>
<g id="clust4" class="cluster">
<title>cluster_report</title>
<polygon fill="none" stroke="black" points="51,-8 51,-99 541,-99 541,-8 51,-8"/>
</g>
<g id="clust5" class="cluster">
<title>cluster_report_html</title>
<polygon fill="none" stroke="black" points="193,-16 193,-91 533,-91 533,-16 193,-16"/>
<text text-anchor="middle" x="363" y="-75.8" font-family="Times,serif" font-size="14.00">Human Readable Report</text>
</g>
<!-- ahs -->
<g id="node1" class="node">
<title>ahs</title>
<ellipse fill="none" stroke="black" cx="370" cy="-563" rx="30.59" ry="18"/>
<text text-anchor="middle" x="370" y="-559.3" font-family="Times,serif" font-size="14.00">A.hs</text>
</g>
<!-- plugin -->
<g id="node7" class="node">
<title>plugin</title>
<polygon fill="none" stroke="black" points="431,-509 309,-509 309,-473 431,-473 431,-509"/>
<text text-anchor="middle" x="370" y="-487.3" font-family="Times,serif" font-size="14.00">dekking&#45;plugin</text>
</g>
<!-- ahs&#45;&gt;plugin -->
<g id="edge1" class="edge">
<title>ahs&#45;&gt;plugin</title>
<path fill="none" stroke="black" d="M370,-544.7C370,-536.98 370,-527.71 370,-519.11"/>
<polygon fill="black" stroke="black" points="373.5,-519.1 370,-509.1 366.5,-519.1 373.5,-519.1"/>
</g>
<!-- bhs -->
<g id="node2" class="node">
<title>bhs</title>
<ellipse fill="none" stroke="black" cx="290" cy="-563" rx="31.4" ry="18"/>
<text text-anchor="middle" x="290" y="-559.3" font-family="Times,serif" font-size="14.00">B.hs</text>
</g>
<!-- acs -->
<g id="node3" class="node">
<title>acs</title>
<ellipse fill="none" stroke="black" cx="285" cy="-197" rx="83.39" ry="18"/>
<text text-anchor="middle" x="285" y="-193.3" font-family="Times,serif" font-size="14.00">A.hs.coverables</text>
</g>
<!-- dekking_report -->
<g id="node10" class="node">
<title>dekking_report</title>
<polygon fill="none" stroke="black" points="346,-143 224,-143 224,-107 346,-107 346,-143"/>
<text text-anchor="middle" x="285" y="-121.3" font-family="Times,serif" font-size="14.00">dekking&#45;report</text>
</g>
<!-- acs&#45;&gt;dekking_report -->
<g id="edge9" class="edge">
<title>acs&#45;&gt;dekking_report</title>
<path fill="none" stroke="black" d="M285,-178.7C285,-170.98 285,-161.71 285,-153.11"/>
<polygon fill="black" stroke="black" points="288.5,-153.1 285,-143.1 281.5,-153.1 288.5,-153.1"/>
</g>
<!-- bcs -->
<g id="node4" class="node">
<title>bcs</title>
<ellipse fill="none" stroke="black" cx="100" cy="-197" rx="83.69" ry="18"/>
<text text-anchor="middle" x="100" y="-193.3" font-family="Times,serif" font-size="14.00">B.hs.coverables</text>
</g>
<!-- bcs&#45;&gt;dekking_report -->
<g id="edge10" class="edge">
<title>bcs&#45;&gt;dekking_report</title>
<path fill="none" stroke="black" d="M139.69,-180.98C166.11,-170.99 201.18,-157.72 230.24,-146.72"/>
<polygon fill="black" stroke="black" points="231.74,-149.9 239.85,-143.08 229.26,-143.35 231.74,-149.9"/>
</g>
<!-- aphs -->
<g id="node5" class="node">
<title>aphs</title>
<ellipse fill="none" stroke="black" cx="450" cy="-416" rx="33.29" ry="18"/>
<text text-anchor="middle" x="450" y="-412.3" font-family="Times,serif" font-size="14.00">A&#39;.hs</text>
</g>
<!-- ghc -->
<g id="node8" class="node">
<title>ghc</title>
<polygon fill="none" stroke="black" points="477,-362 423,-362 423,-326 477,-326 477,-362"/>
<text text-anchor="middle" x="450" y="-340.3" font-family="Times,serif" font-size="14.00">ghc</text>
</g>
<!-- aphs&#45;&gt;ghc -->
<g id="edge4" class="edge">
<title>aphs&#45;&gt;ghc</title>
<path fill="none" stroke="black" d="M450,-397.7C450,-389.98 450,-380.71 450,-372.11"/>
<polygon fill="black" stroke="black" points="453.5,-372.1 450,-362.1 446.5,-372.1 453.5,-372.1"/>
</g>
<!-- bphs -->
<g id="node6" class="node">
<title>bphs</title>
<ellipse fill="none" stroke="black" cx="365" cy="-416" rx="33.6" ry="18"/>
<text text-anchor="middle" x="365" y="-412.3" font-family="Times,serif" font-size="14.00">B&#39;.hs</text>
</g>
<!-- bphs&#45;&gt;ghc -->
<g id="edge5" class="edge">
<title>bphs&#45;&gt;ghc</title>
<path fill="none" stroke="black" d="M382.61,-400.5C393.7,-391.36 408.28,-379.36 421.04,-368.85"/>
<polygon fill="black" stroke="black" points="423.62,-371.26 429.11,-362.2 419.17,-365.86 423.62,-371.26"/>
</g>
<!-- plugin&#45;&gt;acs -->
<g id="edge3" class="edge">
<title>plugin&#45;&gt;acs</title>
<path fill="none" stroke="black" d="M326.32,-472.74C323.56,-470.46 321.07,-467.89 319,-465 266.59,-391.72 273.84,-277.39 280.61,-225.4"/>
<polygon fill="black" stroke="black" points="284.1,-225.67 282.03,-215.28 277.17,-224.7 284.1,-225.67"/>
</g>
<!-- plugin&#45;&gt;aphs -->
<g id="edge2" class="edge">
<title>plugin&#45;&gt;aphs</title>
<path fill="none" stroke="black" d="M398.04,-472.82C401.5,-470.33 404.9,-467.7 408,-465 416.26,-457.8 424.42,-448.99 431.31,-440.89"/>
<polygon fill="black" stroke="black" points="434.06,-443.05 437.74,-433.12 428.67,-438.59 434.06,-443.05"/>
</g>
<!-- executable -->
<g id="node11" class="node">
<title>executable</title>
<polygon fill="none" stroke="black" points="500,-290 406,-290 406,-254 500,-254 500,-290"/>
<text text-anchor="middle" x="453" y="-268.3" font-family="Times,serif" font-size="14.00">executable</text>
</g>
<!-- ghc&#45;&gt;executable -->
<g id="edge6" class="edge">
<title>ghc&#45;&gt;executable</title>
<path fill="none" stroke="black" d="M450.74,-325.7C451.07,-317.98 451.47,-308.71 451.84,-300.11"/>
<polygon fill="black" stroke="black" points="455.34,-300.25 452.27,-290.1 448.34,-299.95 455.34,-300.25"/>
</g>
<!-- coverage -->
<g id="node9" class="node">
<title>coverage</title>
<ellipse fill="none" stroke="black" cx="457" cy="-197" rx="70.69" ry="18"/>
<text text-anchor="middle" x="457" y="-193.3" font-family="Times,serif" font-size="14.00">coverage.dat</text>
</g>
<!-- coverage&#45;&gt;dekking_report -->
<g id="edge8" class="edge">
<title>coverage&#45;&gt;dekking_report</title>
<path fill="none" stroke="black" d="M420.94,-181.33C396.45,-171.36 363.68,-158.02 336.45,-146.94"/>
<polygon fill="black" stroke="black" points="337.65,-143.65 327.07,-143.12 335.01,-150.13 337.65,-143.65"/>
</g>
<!-- report_html -->
<g id="node12" class="node">
<title>report_html</title>
<ellipse fill="none" stroke="black" cx="465" cy="-42" rx="60.39" ry="18"/>
<text text-anchor="middle" x="465" y="-38.3" font-family="Times,serif" font-size="14.00">index.html</text>
</g>
<!-- dekking_report&#45;&gt;report_html -->
<g id="edge11" class="edge">
<title>dekking_report&#45;&gt;report_html</title>
<path fill="none" stroke="black" d="M346.04,-115.51C362.77,-111.79 380.54,-106.5 396,-99 412.9,-90.8 429.33,-77.74 441.91,-66.29"/>
<polygon fill="black" stroke="black" points="444.33,-68.82 449.22,-59.43 439.54,-63.72 444.33,-68.82"/>
</g>
<!-- report_a_html -->
<g id="node13" class="node">
<title>report_a_html</title>
<ellipse fill="none" stroke="black" cx="345" cy="-42" rx="41.69" ry="18"/>
<text text-anchor="middle" x="345" y="-38.3" font-family="Times,serif" font-size="14.00">A.html</text>
</g>
<!-- dekking_report&#45;&gt;report_a_html -->
<g id="edge12" class="edge">
<title>dekking_report&#45;&gt;report_a_html</title>
<path fill="none" stroke="black" d="M297.72,-106.82C306.17,-95.43 317.37,-80.3 326.76,-67.63"/>
<polygon fill="black" stroke="black" points="329.77,-69.44 332.91,-59.32 324.14,-65.28 329.77,-69.44"/>
</g>
<!-- report_b_html -->
<g id="node14" class="node">
<title>report_b_html</title>
<ellipse fill="none" stroke="black" cx="243" cy="-42" rx="42.49" ry="18"/>
<text text-anchor="middle" x="243" y="-38.3" font-family="Times,serif" font-size="14.00">B.html</text>
</g>
<!-- dekking_report&#45;&gt;report_b_html -->
<g id="edge13" class="edge">
<title>dekking_report&#45;&gt;report_b_html</title>
<path fill="none" stroke="black" d="M276.09,-106.82C270.37,-95.79 262.84,-81.27 256.41,-68.86"/>
<polygon fill="black" stroke="black" points="259.46,-67.14 251.75,-59.88 253.25,-70.36 259.46,-67.14"/>
</g>
<!-- report_json -->
<g id="node15" class="node">
<title>report_json</title>
<ellipse fill="none" stroke="black" cx="121" cy="-42" rx="61.99" ry="18"/>
<text text-anchor="middle" x="121" y="-38.3" font-family="Times,serif" font-size="14.00">report.json</text>
</g>
<!-- dekking_report&#45;&gt;report_json -->
<g id="edge14" class="edge">
<title>dekking_report&#45;&gt;report_json</title>
<path fill="none" stroke="black" d="M223.87,-112.34C211.95,-108.89 199.82,-104.52 189,-99 172.68,-90.67 156.75,-77.88 144.42,-66.62"/>
<polygon fill="black" stroke="black" points="146.54,-63.82 136.86,-59.51 141.74,-68.91 146.54,-63.82"/>
</g>
<!-- executable&#45;&gt;coverage -->
<g id="edge7" class="edge">
<title>executable&#45;&gt;coverage</title>
<path fill="none" stroke="black" d="M453.95,-253.7C454.41,-245.25 454.98,-234.87 455.5,-225.37"/>
<polygon fill="black" stroke="black" points="459.01,-225.35 456.06,-215.18 452.02,-224.97 459.01,-225.35"/>
</g>
</g>
</svg>
